<svg height="678" version="1.1" width="1148" xmlns="http://www.w3.org/2000/svg" style="overflow: hidden; position: relative;"><desc style="-webkit-tap-highlight-color: rgba(0, 0, 0, 0);">Created with Raphaël 2.0.1</desc><defs style="-webkit-tap-highlight-color: rgba(0, 0, 0, 0);"></defs><rect x="0" y="0" width="1148" height="678" r="0" rx="0" ry="0" fill="#f5f5f5" stroke="none" style="-webkit-tap-highlight-color: rgba(0, 0, 0, 0);"></rect><ellipse cx="742" cy="340" rx="120" ry="169.2" fill="none" stroke="#555555" transform="matrix(1,0,0,1,0,0)" stroke-width="1" opacity="0.5" style="-webkit-tap-highlight-color: rgba(0, 0, 0, 0); opacity: 0.5;"></ellipse><ellipse cx="508" cy="307" rx="129" ry="181.89" fill="none" stroke="#555555" transform="matrix(0.9808,0.1951,-0.1951,0.9808,69.6538,-93.207)" stroke-width="1" opacity="0.5" style="-webkit-tap-highlight-color: rgba(0, 0, 0, 0); opacity: 0.5;"></ellipse><ellipse cx="663" cy="420" rx="122" ry="172.01999999999998" fill="none" stroke="#555555" transform="matrix(0.9239,0.3827,-0.3827,0.9239,211.1949,-221.7485)" stroke-width="1" opacity="0.5" style="-webkit-tap-highlight-color: rgba(0, 0, 0, 0); opacity: 0.5;"></ellipse><ellipse cx="519" cy="282" rx="127" ry="179.07" fill="none" stroke="#555555" transform="matrix(0.8315,0.5556,-0.5556,0.8315,244.1381,-240.8154)" stroke-width="1" opacity="0.5" style="-webkit-tap-highlight-color: rgba(0, 0, 0, 0); opacity: 0.5;"></ellipse><ellipse cx="573" cy="272" rx="125" ry="176.25" fill="none" stroke="#555555" transform="matrix(0.7071,0.7071,-0.7071,0.7071,360.1609,-325.5052)" stroke-width="1" opacity="0.5" style="-webkit-tap-highlight-color: rgba(0, 0, 0, 0); opacity: 0.5;"></ellipse><ellipse cx="572" cy="378" rx="124" ry="174.84" fill="none" stroke="#555555" transform="matrix(0.5556,0.8315,-0.8315,0.5556,568.5093,-307.6062)" stroke-width="1" opacity="0.5" style="-webkit-tap-highlight-color: rgba(0, 0, 0, 0); opacity: 0.5;"></ellipse><ellipse cx="723" cy="274" rx="130" ry="183.29999999999998" fill="none" stroke="#555555" transform="matrix(0.3827,0.9239,-0.9239,0.3827,699.4629,-498.8202)" stroke-width="1" opacity="0.5" style="-webkit-tap-highlight-color: rgba(0, 0, 0, 0); opacity: 0.5;"></ellipse><ellipse cx="571" cy="263" rx="125" ry="176.25" fill="none" stroke="#555555" transform="matrix(0.1951,0.9808,-0.9808,0.1951,717.55,-348.3371)" stroke-width="1" opacity="0.5" style="-webkit-tap-highlight-color: rgba(0, 0, 0, 0); opacity: 0.5;"></ellipse><ellipse cx="411" cy="259" rx="130" ry="183.29999999999998" fill="none" stroke="#555555" transform="matrix(0,1,-1,0,670,-152)" stroke-width="1" opacity="0.5" style="-webkit-tap-highlight-color: rgba(0, 0, 0, 0); opacity: 0.5;"></ellipse><ellipse cx="797" cy="379" rx="127" ry="179.07" fill="none" stroke="#555555" transform="matrix(-0.1951,0.9808,-0.9808,-0.1951,1324.2046,-328.7466)" stroke-width="1" opacity="0.5" style="-webkit-tap-highlight-color: rgba(0, 0, 0, 0); opacity: 0.5;"></ellipse><ellipse cx="780" cy="435" rx="123" ry="173.42999999999998" fill="none" stroke="#555555" transform="matrix(-0.3827,0.9239,-0.9239,-0.3827,1480.3807,-119.1587)" stroke-width="1" opacity="0.5" style="-webkit-tap-highlight-color: rgba(0, 0, 0, 0); opacity: 0.5;"></ellipse><ellipse cx="465" cy="346" rx="121" ry="170.60999999999999" fill="none" stroke="#555555" transform="matrix(-0.5556,0.8315,-0.8315,-0.5556,1011.0286,151.5939)" stroke-width="1" opacity="0.5" style="-webkit-tap-highlight-color: rgba(0, 0, 0, 0); opacity: 0.5;"></ellipse><ellipse cx="544" cy="423" rx="120" ry="169.2" fill="none" stroke="#555555" transform="matrix(-0.7071,0.7071,-0.7071,-0.7071,1227.7723,337.4401)" stroke-width="1" opacity="0.5" style="-webkit-tap-highlight-color: rgba(0, 0, 0, 0); opacity: 0.5;"></ellipse><ellipse cx="486" cy="310" rx="122" ry="172.01999999999998" fill="none" stroke="#555555" transform="matrix(-0.8315,0.5556,-0.5556,-0.8315,1062.321,297.7484)" stroke-width="1" opacity="0.5" style="-webkit-tap-highlight-color: rgba(0, 0, 0, 0); opacity: 0.5;"></ellipse><ellipse cx="590" cy="425" rx="121" ry="170.60999999999999" fill="none" stroke="#555555" transform="matrix(-0.9239,0.3827,-0.3827,-0.9239,1297.7294,591.8656)" stroke-width="1" opacity="0.5" style="-webkit-tap-highlight-color: rgba(0, 0, 0, 0); opacity: 0.5;"></ellipse><ellipse cx="494" cy="243" rx="123" ry="173.42999999999998" fill="none" stroke="#555555" transform="matrix(-0.9808,0.1951,-0.1951,-0.9808,1025.9149,384.9562)" stroke-width="1" opacity="0.5" style="-webkit-tap-highlight-color: rgba(0, 0, 0, 0); opacity: 0.5;"></ellipse><ellipse cx="703" cy="431" rx="123" ry="173.42999999999998" fill="none" stroke="#555555" transform="matrix(-1,0,0,-1,1406,862)" stroke-width="1" opacity="0.5" style="-webkit-tap-highlight-color: rgba(0, 0, 0, 0); opacity: 0.5;"></ellipse><ellipse cx="723" cy="394" rx="124" ry="174.84" fill="none" stroke="#555555" transform="matrix(-0.9808,-0.1951,0.1951,-0.9808,1355.2422,921.4797)" stroke-width="1" opacity="0.5" style="-webkit-tap-highlight-color: rgba(0, 0, 0, 0); opacity: 0.5;"></ellipse><ellipse cx="766" cy="365" rx="124" ry="174.84" fill="none" stroke="#555555" transform="matrix(-0.9239,-0.3827,0.3827,-0.9239,1334.0123,995.3515)" stroke-width="1" opacity="0.5" style="-webkit-tap-highlight-color: rgba(0, 0, 0, 0); opacity: 0.5;"></ellipse><ellipse cx="351" cy="379" rx="121" ry="170.60999999999999" fill="none" stroke="#555555" transform="matrix(-0.8315,-0.5556,0.5556,-0.8315,432.2847,889.1321)" stroke-width="1" opacity="0.5" style="-webkit-tap-highlight-color: rgba(0, 0, 0, 0); opacity: 0.5;"></ellipse><ellipse cx="320" cy="364" rx="127" ry="179.07" fill="none" stroke="#555555" transform="matrix(-0.7071,-0.7071,0.7071,-0.7071,288.8873,847.661)" stroke-width="1" opacity="0.5" style="-webkit-tap-highlight-color: rgba(0, 0, 0, 0); opacity: 0.5;"></ellipse><ellipse cx="696" cy="362" rx="124" ry="174.84" fill="none" stroke="#555555" transform="matrix(-0.5556,-0.8315,0.8315,-0.5556,781.6849,1141.8193)" stroke-width="1" opacity="0.5" style="-webkit-tap-highlight-color: rgba(0, 0, 0, 0); opacity: 0.5;"></ellipse><ellipse cx="529" cy="392" rx="125" ry="176.25" fill="none" stroke="#555555" transform="matrix(-0.3827,-0.9239,0.9239,-0.3827,369.2788,1030.7442)" stroke-width="1" opacity="0.5" style="-webkit-tap-highlight-color: rgba(0, 0, 0, 0); opacity: 0.5;"></ellipse><ellipse cx="800" cy="277" rx="120" ry="169.2" fill="none" stroke="#555555" transform="matrix(-0.1951,-0.9808,0.9808,-0.1951,684.3947,1115.6682)" stroke-width="1" opacity="0.5" style="-webkit-tap-highlight-color: rgba(0, 0, 0, 0); opacity: 0.5;"></ellipse><ellipse cx="383" cy="262" rx="130" ry="183.29999999999998" fill="none" stroke="#555555" transform="matrix(0,-1,1,0,121,645)" stroke-width="1" opacity="0.5" style="-webkit-tap-highlight-color: rgba(0, 0, 0, 0); opacity: 0.5;"></ellipse><ellipse cx="559" cy="389" rx="130" ry="183.29999999999998" fill="none" stroke="#555555" transform="matrix(0.1951,-0.9808,0.9808,0.1951,68.419,861.3688)" stroke-width="1" opacity="0.5" style="-webkit-tap-highlight-color: rgba(0, 0, 0, 0); opacity: 0.5;"></ellipse><ellipse cx="727" cy="373" rx="120" ry="169.2" fill="none" stroke="#555555" transform="matrix(0.3827,-0.9239,0.9239,0.3827,104.1821,901.9195)" stroke-width="1" opacity="0.5" style="-webkit-tap-highlight-color: rgba(0, 0, 0, 0); opacity: 0.5;"></ellipse><ellipse cx="465" cy="318" rx="127" ry="179.07" fill="none" stroke="#555555" transform="matrix(0.5556,-0.8315,0.8315,0.5556,-57.7475,527.962)" stroke-width="1" opacity="0.5" style="-webkit-tap-highlight-color: rgba(0, 0, 0, 0); opacity: 0.5;"></ellipse><ellipse cx="550" cy="312" rx="127" ry="179.07" fill="none" stroke="#555555" transform="matrix(0.7071,-0.7071,0.7071,0.7071,-59.526,480.2914)" stroke-width="1" opacity="0.5" style="-webkit-tap-highlight-color: rgba(0, 0, 0, 0); opacity: 0.5;"></ellipse><ellipse cx="783" cy="289" rx="120" ry="169.2" fill="none" stroke="#555555" transform="matrix(0.8315,-0.5556,0.5556,0.8315,-28.6005,483.7168)" stroke-width="1" opacity="0.5" style="-webkit-tap-highlight-color: rgba(0, 0, 0, 0); opacity: 0.5;"></ellipse><ellipse cx="383" cy="278" rx="122" ry="172.01999999999998" fill="none" stroke="#555555" transform="matrix(0.9239,-0.3827,0.3827,0.9239,-77.2319,167.7292)" stroke-width="1" opacity="0.5" style="-webkit-tap-highlight-color: rgba(0, 0, 0, 0); opacity: 0.5;"></ellipse><ellipse cx="441" cy="336" rx="124" ry="174.84" fill="none" stroke="#555555" transform="matrix(0.9808,-0.1951,0.1951,0.9808,-57.0767,92.491)" stroke-width="1" opacity="0.5" style="-webkit-tap-highlight-color: rgba(0, 0, 0, 0); opacity: 0.5;"></ellipse></svg>